<?xml version="1.0" encoding="UTF-8" standalone="no"?>
<!-- Created with Inkscape (http://www.inkscape.org/) -->

<svg
   width="32"
   height="32"
   viewBox="0 0 8.4666664 8.466667"
   version="1.1"
   id="svg5"
   sodipodi:docname="del.svg"
   inkscape:export-filename="C:\Users\bhavn\Documents\webdev\tutorials\todo\static\todo\del.png"
   inkscape:export-xdpi="96"
   inkscape:export-ydpi="96"
   inkscape:version="1.1.2 (b8e25be833, 2022-02-05)"
   xmlns:inkscape="http://www.inkscape.org/namespaces/inkscape"
   xmlns:sodipodi="http://sodipodi.sourceforge.net/DTD/sodipodi-0.dtd"
   xmlns="http://www.w3.org/2000/svg"
   xmlns:svg="http://www.w3.org/2000/svg">
  <sodipodi:namedview
     id="namedview7"
     pagecolor="#ffffff"
     bordercolor="#cccccc"
     borderopacity="1"
     inkscape:pageshadow="0"
     inkscape:pageopacity="1"
     inkscape:pagecheckerboard="0"
     inkscape:document-units="px"
     showgrid="false"
     units="px"
     inkscape:zoom="17.855746"
     inkscape:cx="8.372655"
     inkscape:cy="15.681227"
     inkscape:window-width="1920"
     inkscape:window-height="974"
     inkscape:window-x="-11"
     inkscape:window-y="-11"
     inkscape:window-maximized="1"
     inkscape:current-layer="layer3" />
  <defs
     id="defs2" />
  <g
     inkscape:label="Layer 1"
     inkscape:groupmode="layer"
     id="layer1">
    <g
       inkscape:groupmode="layer"
       id="layer3"
       inkscape:label="g">
      <path
         id="rect53"
         style="fill:#999999;fill-opacity:0.809668;fill-rule:evenodd;stroke:#b9bcb9;stroke-width:0.115219"
         d="M 0.96752406,5.4156144 2.9151468,5.393705 c 0.2084978,-0.00234 0.3896887,0.150802 0.3905204,0.2957789 l 0.011158,1.9450614 c 0.00237,0.412682 -0.2587699,0.744925 -0.5802017,0.744925 H 0.88941993 c -0.32143177,0 -0.57776577,-0.3322435 -0.5802017,-0.744925 L 0.29806048,5.7442578 C 0.29562462,5.3315762 0.64611339,5.4192301 0.96752406,5.4156144 Z"
         sodipodi:nodetypes="sssssssss"
         inkscape:export-filename="C:\Users\bhavn\Documents\webdev\tutorials\todo\static\todo\path7946.png"
         inkscape:export-xdpi="96"
         inkscape:export-ydpi="96" />
      <rect
         style="fill:#cccccc;fill-opacity:0.809668;fill-rule:evenodd;stroke:none;stroke-width:0.0676552;stroke-opacity:1"
         id="rect4492"
         width="0.2408146"
         height="2.796701"
         x="1.1420835"
         y="5.5030537"
         inkscape:export-filename="C:\Users\bhavn\Documents\webdev\tutorials\todo\static\todo\path7946.png"
         inkscape:export-xdpi="96"
         inkscape:export-ydpi="96" />
      <rect
         style="fill:#cccccc;fill-opacity:0.809668;fill-rule:evenodd;stroke:none;stroke-width:0.0670635;stroke-opacity:1"
         id="rect4492-3-4"
         width="0.2408146"
         height="2.747997"
         x="0.65634978"
         y="5.5517573"
         inkscape:export-filename="C:\Users\bhavn\Documents\webdev\tutorials\todo\static\todo\path7946.png"
         inkscape:export-xdpi="96"
         inkscape:export-ydpi="96" />
      <rect
         style="fill:#cccccc;fill-opacity:0.809668;fill-rule:evenodd;stroke:none;stroke-width:0.0682013;stroke-opacity:1"
         id="rect4492-5"
         width="0.2408146"
         height="2.8420458"
         x="1.6535622"
         y="5.4787917"
         inkscape:export-filename="C:\Users\bhavn\Documents\webdev\tutorials\todo\static\todo\path7946.png"
         inkscape:export-xdpi="96"
         inkscape:export-ydpi="96" />
      <rect
         style="fill:#cccccc;fill-opacity:0.809668;fill-rule:evenodd;stroke:none;stroke-width:0.0683871;stroke-opacity:1"
         id="rect4492-3"
         width="0.2408146"
         height="2.8575449"
         x="2.1556602"
         y="5.4742475"
         inkscape:export-filename="C:\Users\bhavn\Documents\webdev\tutorials\todo\static\todo\path7946.png"
         inkscape:export-xdpi="96"
         inkscape:export-ydpi="96" />
      <rect
         style="fill:#cccccc;fill-opacity:0.809668;fill-rule:evenodd;stroke:none;stroke-width:0.0679926;stroke-opacity:1"
         id="rect4492-3-2"
         width="0.2408146"
         height="2.8246803"
         x="2.6354425"
         y="5.46877"
         inkscape:export-filename="C:\Users\bhavn\Documents\webdev\tutorials\todo\static\todo\path7946.png"
         inkscape:export-xdpi="96"
         inkscape:export-ydpi="96" />
      <path
         id="rect4728"
         style="fill:#b3b3b3;fill-rule:evenodd;stroke-width:0.118316"
         d="M 0.58009252,4.8898386 H 3.0571083 c 0.092721,0 0.3759798,0.2300049 0.4016784,0.2979828 l 0.1673658,0.4427171 c 0.025699,0.067978 -0.074645,0.1277069 -0.1673659,0.1277069 H 0.20072968 c -0.0927207,0 -0.19114274,-0.059323 -0.16736586,-0.1277069 L 0.17841427,5.2133627 c 0.023777,-0.068384 0.30895751,-0.3235241 0.40167825,-0.3235241 z"
         sodipodi:nodetypes="sssssssss"
         inkscape:export-filename="C:\Users\bhavn\Documents\webdev\tutorials\todo\static\todo\path7946.png"
         inkscape:export-xdpi="96"
         inkscape:export-ydpi="96" />
      <path
         id="rect7244"
         style="fill:#b3b3b3;fill-rule:evenodd;stroke-width:0.158884"
         d="M 0.72392492,4.6557845 H 2.9111352 l 0.1440236,0.2290867 -0.1577402,0.077896 -2.17349368,0.00673 -0.1438324,-0.079662 z"
         sodipodi:nodetypes="ccccccc"
         inkscape:export-filename="C:\Users\bhavn\Documents\webdev\tutorials\todo\static\todo\path7946.png"
         inkscape:export-xdpi="96"
         inkscape:export-ydpi="96" />
      <path
         style="fill:#cccccc;fill-opacity:1;fill-rule:evenodd;stroke:none;stroke-width:0.12134;stroke-opacity:1"
         id="path7795"
         d="m 0.65502083,5.674006 c 0.0213379,-0.08652 0.0481173,-0.1717344 0.077509,-0.2559209 0.0293917,-0.078222 0.0677585,-0.1530597 0.11017177,-0.2251915 0.0233745,-0.036002 0.0466935,-0.072033 0.0688189,-0.1087905 0,0 -0.0905768,0.039563 -0.0905768,0.039563 v 0 C 0.7997789,5.1600591 0.7773044,5.1956781 0.7548612,5.2313216 0.7126727,5.3040576 0.674972,5.3796262 0.64548491,5.4582326 c -0.0280698,0.085791 -0.0521762,0.1728527 -0.0824014,0.2579304 0,0 0.0919373,-0.042158 0.0919373,-0.042157 z"
         inkscape:export-filename="C:\Users\bhavn\Documents\webdev\tutorials\todo\static\todo\path7946.png"
         inkscape:export-xdpi="96"
         inkscape:export-ydpi="96" />
      <path
         style="fill:#cccccc;fill-opacity:1;fill-rule:evenodd;stroke:none;stroke-width:0.12134;stroke-opacity:1"
         id="path7896"
         d="M 0.34178995,5.6208904 C 0.35602404,5.524755 0.39960564,5.436271 0.44456505,5.3508709 0.4857445,5.27911 0.53109049,5.2089688 0.58694127,5.1472764 c 0.0298905,-0.031684 0.0631537,-0.060128 0.0924765,-0.092315 0.0119609,-0.010904 0.0160063,-0.026778 0.025052,-0.039487 0.004539,-0.00637 0.006542,-0.0074 0.0126464,-0.012617 0.0110132,-0.00965 0.023046,-0.01799 0.0342801,-0.027358 0,0 -0.0943061,0.037324 -0.0943061,0.037324 v 0 c -0.0116096,0.00914 -0.0234843,0.018018 -0.0340735,0.028329 -0.0142455,0.016049 -0.021251,0.036528 -0.0363573,0.052057 -0.0293497,0.031379 -0.0616644,0.059974 -0.0905765,0.091777 -0.0532907,0.062243 -0.0958532,0.1325597 -0.13613909,0.2033816 -0.0457158,0.088697 -0.0892305,0.1798472 -0.10907779,0.2780071 0,0 0.0909235,-0.045485 0.090924,-0.045485 z"
         inkscape:export-filename="C:\Users\bhavn\Documents\webdev\tutorials\todo\static\todo\path7946.png"
         inkscape:export-xdpi="96"
         inkscape:export-ydpi="96" />
      <path
         style="fill:#cccccc;fill-opacity:1;fill-rule:evenodd;stroke:none;stroke-width:0.12134;stroke-opacity:1"
         id="path7898"
         d="m 0.52928613,4.9006737 c 0.0364243,-0.00557 0.0721418,-0.014664 0.10820279,-0.022029 0.0395797,-0.00783 0.0799115,-0.010055 0.12015842,-0.011465 0.0589181,-0.00209 0.11788297,-0.00128 0.17682328,-0.00104 0.0433279,-0.00128 0.0862689,0.00433 0.12920188,0.00907 0.00542,7.298e-4 0.010777,0.00204 0.016239,0.0022 0.060588,0.00176 0.1212301,-4.245e-4 0.1818452,-3.355e-4 0.12004,1.767e-4 0.2400453,0.00228 0.3600501,0.00489 0.1658811,0.00348 0.3316178,0.011522 0.4974884,0.015187 0.1238407,0.00247 0.2477429,0.00398 0.3715233,0.00871 0.059628,0.00351 0.1193715,0.00275 0.1790654,0.00222 0.03908,-5.867e-4 0.078162,-7.298e-4 0.1172449,-8.527e-4 0.037892,-0.00153 0.075754,-0.00392 0.1135269,-0.00724 0.067711,-0.010716 0.077384,-0.029989 0.1469098,-0.077051 0,0 -0.092405,0.040546 -0.092405,0.040546 v 0 c 0.1549183,-0.076759 0.068297,-0.028903 0.026021,-0.02207 -0.037527,0.00358 -0.075126,0.0057 -0.1127703,0.00779 -0.039381,1.816e-4 -0.078763,5.94e-4 -0.1181373,0.00134 -0.06055,0.00132 -0.1211658,0.00283 -0.1817022,2.068e-4 -0.124962,-0.00277 -0.2500321,-8.671e-4 -0.3749456,-0.00632 -0.1682691,-0.00524 -0.3367053,-0.00423 -0.5049767,-0.00993 -0.038974,-7.949e-4 -0.077943,-0.00184 -0.1169221,-0.00238 -0.1365145,-0.00189 -0.2733949,8.59e-5 -0.4095536,-0.011671 -0.00559,-4.821e-4 -0.011099,-0.00156 -0.016647,-0.00234 -0.043558,-0.00416 -0.087111,-0.010482 -0.1309877,-0.00906 -0.0587157,1.188e-4 -0.11743169,6.363e-4 -0.17614789,1.84e-4 -0.0405916,9.467e-4 -0.0812779,0.003 -0.12128817,0.010258 -0.0353255,0.00655 -0.0700182,0.016169 -0.10566232,0.021044 0,0 -0.0821551,0.06015 -0.0821551,0.06015 z"
         inkscape:export-filename="C:\Users\bhavn\Documents\webdev\tutorials\todo\static\todo\path7946.png"
         inkscape:export-xdpi="96"
         inkscape:export-ydpi="96" />
      <path
         style="fill:#cccccc;fill-opacity:1;fill-rule:evenodd;stroke:none;stroke-width:0.12134;stroke-opacity:1"
         id="path7900"
         d="m 0.71786352,4.6456539 c 0.0288615,0.010175 0.0596471,0.013481 0.0899817,0.016545 0.0373186,0.00449 0.074225,-1.82e-5 0.1110521,-0.00582 0.0568038,-0.00858 0.11441578,-0.010053 0.17177748,-0.011437 0.074134,-0.00314 0.1478335,-0.012317 0.2217704,-0.01834 0.1554847,-0.012723 0.3115595,-0.00916 0.4673824,-0.00966 0.2031075,0.00198 0.4064687,0.00328 0.6093196,0.01469 0.034805,0.00196 0.06956,0.00469 0.1043399,0.00704 0.074953,0.00582 0.1498401,0.012479 0.2246706,0.019654 0.032186,0.00309 0.064075,0.00664 0.096389,0.00783 0.046637,-0.00239 0.063558,-0.026209 0.1148278,-0.055938 0.0122,-0.00707 0.00521,-0.00912 -0.00312,-0.017626 -0.004,1.999e-4 -0.00801,1.823e-4 -0.011985,6e-4 -0.062643,0.00658 0.037189,-0.00188 -0.045796,0.00554 -0.044225,0.00395 -0.08862,0.00531 -0.1329713,0.0071 -0.1031111,0.00405 -0.206223,0.00167 -0.3092201,-0.00356 C 2.3589646,4.5993468 2.2919715,4.59173 2.2246592,4.5889754 2.140288,4.5867397 2.0558868,4.5879978 1.9715061,4.5887526 c -0.1052063,0.00136 -0.21031,-0.00229 -0.3153457,-0.00768 -0.058697,-0.00286 -0.117386,-0.00619 -0.176147,-0.00747 -0.036458,3.438e-4 -0.072759,-9.779e-4 -0.1091127,-0.00345 -0.056488,-0.00434 -0.1129927,-0.00845 -0.1695885,-0.011216 -0.036715,-0.00111 -0.07341,-0.00358 -0.1101614,-0.00331 -9.834e-4,7.1e-6 -0.041507,7.181e-4 -0.045717,0.00287 -0.032793,0.016739 -0.0632107,0.037623 -0.0948165,0.056435 0.001539,0.00519 0.002252,0.010686 0.004632,0.01556 0.00233,0.00478 0.005957,0.00887 0.009302,0.013035 0.013483,0.016824 0.0302454,0.027576 0.0491085,0.037738 0.038797,0.015646 0.080952,0.00854 0.120986,0.00206 0.054871,-0.00931 0.1088672,-0.02334 0.1641616,-0.030416 0.017726,-0.00227 0.035545,-0.00376 0.053318,-0.00565 0.1503987,-0.00687 0.3009882,0.00465 0.4510074,0.014565 0.05316,0.00356 0.084774,0.00558 0.1371171,0.00946 0.030431,0.00225 0.054649,0.00294 0.083656,0.00905 0.00174,3.668e-4 -0.00653,0.00181 -0.00532,5.326e-4 0.015723,-0.01654 0.033119,-0.031465 0.049678,-0.047199 -0.1227471,0.012998 -0.2464357,0.013893 -0.369767,0.015107 -0.095054,3.713e-4 -0.1901543,0.00106 -0.2851911,-0.00111 -0.074225,-0.00101 -0.1481161,-0.00808 -0.2221035,-0.013178 -0.011238,-0.00117 -0.022487,-0.00223 -0.033714,-0.00351 -0.05091,-0.00579 -0.065431,-0.016871 -0.1073084,0.055363 -0.00576,0.00994 0.023271,0.00107 0.034912,0.00147 0.017233,5.83e-4 0.034472,9.756e-4 0.051709,0.00147 0.1264851,0.00554 0.2529758,0.00609 0.3795513,0.00481 0.17697,-0.00286 0.3539689,-0.00287 0.5309573,-0.00337 0.078028,-9.25e-4 0.1559993,0.0026 0.2339629,0.00512 0.102381,-1.359e-4 0.2047544,7.948e-4 0.3071362,4.376e-4 0.059495,-0.00182 0.1194237,0.00415 0.1787904,-0.00192 0.020011,-0.00204 0.037768,-0.00586 0.05741,-0.00963 0.043312,-0.01165 0.1448549,-0.031264 0.1355791,-0.080299 -0.00155,-0.00816 -0.00633,-0.012929 -0.011145,-0.019241 -0.00462,-0.00462 -0.010484,-0.011042 -0.016177,-0.014534 -0.025923,-0.015899 -0.073064,-0.015854 -0.1026877,-0.017686 -0.046383,-0.00219 -0.092826,-0.00176 -0.1392406,-0.00126 -0.040674,0.00314 -0.081442,0.00245 -0.1221071,-1.553e-4 -0.059661,-0.0059 -0.1194105,-0.00998 -0.1793048,-0.012606 -0.082178,-0.00215 -0.1643656,-0.00441 -0.24639,-0.00997 -0.062211,-0.00459 -0.1243699,-0.00981 -0.1864857,-0.015508 -0.012225,-0.00136 -0.024459,-0.00263 -0.036674,-0.00407 -0.02817,-0.00331 -0.039072,-0.00541 -0.067724,-0.00748 -0.035665,-0.00257 -0.071219,-0.00236 -0.106936,-0.00177 -0.071089,0.00478 -0.1421269,0.010014 -0.2132977,0.013658 -0.087338,0.00401 -0.1747662,0.00559 -0.2621913,0.00584 -0.063663,7.659e-4 -0.1273278,2.733e-4 -0.1909919,2.334e-4 -0.046612,-0.00145 -0.0931565,-0.00422 -0.13976317,-0.00588 -0.0340221,-0.00324 -0.0666782,2.27e-5 -0.0989557,0.010759 -0.0400813,0.017784 -0.0517066,0.022345 -0.10537828,0.062304 -0.003342,0.00249 -6.7576e-4,0.00837 4.433e-4,0.012337 0.004382,0.01551 0.017294,0.029127 0.0274256,0.041144 0.020517,0.022514 0.0385265,0.031268 0.0684063,0.035952 0.0574402,0.00285 0.0799541,-0.02016 0.13254754,-0.064243 0.003577,-0.003 -0.0103305,-0.022209 -0.0108079,-0.022945 -0.002266,-0.00304 -0.007126,-0.00535 -0.006798,-0.0091 2.192e-4,-0.00251 0.009428,4.491e-4 0.007417,0.00201 -0.0228216,0.017735 -0.0523836,0.02731 -0.0721459,0.04829 -0.005744,0.0061 0.0169113,7.171e-4 0.0253449,0.00139 0.0181676,0.00146 0.0414944,0.00441 0.0596178,0.00657 0.0601794,0.00878 0.12131201,0.00488 0.18182511,0.00266 0.036299,-0.00134 0.069341,-0.00284 0.1056163,-0.00442 0.078757,-0.00351 0.1572776,-0.010578 0.235921,-0.015804 0.046254,-0.0037 0.092549,0.00201 0.1385966,0.00593 0.028513,0.00254 0.056983,0.00507 0.085528,0.00218 0.042899,-0.00673 0.086356,-0.00687 0.1296687,-0.00673 0,0 0.080124,-0.057142 0.080124,-0.057142 v 0 c -0.042924,5.31e-5 -0.085946,-5.58e-5 -0.1286881,0.0044 -0.028307,0.00449 -0.056696,0.00209 -0.085194,1.634e-4 -0.046711,-0.00332 -0.093616,-0.00959 -0.1404606,-0.00642 -0.079885,0.00598 -0.159462,0.015977 -0.2395879,0.018766 -0.09421,0.00426 -0.1892195,0.013006 -0.2831395,6.561e-4 -0.02754,-0.00328 -0.031576,-0.00369 -0.0590848,-0.00725 -0.008228,-0.00106 -0.0168671,-0.00605 -0.0246715,-0.00328 -0.0361507,0.012837 -0.0706852,0.030108 -0.10398751,0.048963 -0.002936,0.00166 -0.001233,0.00684 -1.4573e-4,0.00999 0.00114,0.00332 0.004311,0.00558 0.00647,0.00836 0.001739,0.00277 0.004005,0.00528 0.005209,0.00832 0.0129828,0.032724 -0.12403616,0.072289 0.0837851,-0.03749 0.003584,-0.00189 -0.006791,0.00456 -0.0106262,0.00589 -0.0107303,0.00372 -0.0184662,0.00286 -0.0295969,0.00295 -0.0279672,-0.00311 -0.04485,-0.00881 -0.064787,-0.029542 -0.007953,-0.00921 -0.0127163,-0.013683 -0.018474,-0.024448 -0.001739,-0.00325 -0.003613,-0.00665 -0.003976,-0.010308 -2.1178e-4,-0.00213 0.004311,-0.00694 0.002352,-0.006 -0.0170367,0.00824 -0.11506422,0.063234 -0.0683115,0.037032 0.0314775,-0.012641 0.0634402,-0.017708 0.0975103,-0.014489 0.0470669,0.00121 0.0940667,0.00387 0.14112583,0.00529 0.0639277,8.6e-6 0.12785733,-3.668e-4 0.19178433,-6.582e-4 0.088222,-0.00172 0.1764452,-0.00345 0.26461,-0.00717 0.070358,-0.00285 0.140745,-0.00502 0.2108293,-0.012142 0.022797,-7.226e-4 0.046133,-0.00176 0.06894,-0.00124 0.047713,0.00108 0.094929,0.00812 0.1422925,0.013196 0.061939,0.00619 0.1238486,0.012913 0.1860347,0.016217 0.082409,0.00478 0.1649917,0.00582 0.2474575,0.00937 0.059197,0.0033 0.1182354,0.00846 0.1772856,0.013682 0.040207,0.00362 0.080687,0.00564 0.120997,0.00216 0.047137,-0.00154 0.094322,-0.00293 0.1414793,-0.00134 0.026467,0.00153 0.07201,0.00192 0.09579,0.015115 0.00581,0.00322 0.010065,0.00791 0.014756,0.012419 0.00232,0.0029 0.00733,0.00771 0.00714,0.012245 -8.87e-5,0.00207 -0.00439,0.00661 -0.00249,0.00572 0.1575344,-0.074183 0.073647,-0.036926 0.037126,-0.028073 -0.016399,0.0035 -0.041337,0.00911 -0.057686,0.011316 -0.060178,0.00812 -0.1212723,0.00336 -0.1817461,0.00499 -0.1009334,-6.562e-4 -0.2018953,1.52e-4 -0.3027873,-0.00324 -0.079641,-0.00165 -0.1593141,-0.00439 -0.2389732,-0.00199 -0.1784197,0.00317 -0.3568439,0.00848 -0.5353112,0.00664 -0.1244018,-0.00246 -0.2488614,-0.00374 -0.3731853,-0.00887 -0.016347,-0.00103 -0.03271,-0.00183 -0.049042,-0.00307 -0.010482,-7.949e-4 -0.021731,-0.00714 -0.031385,-0.00306 -0.033875,0.014337 -0.063069,0.037584 -0.094603,0.056375 0.00411,-4.894e-4 0.00819,-0.00158 0.012328,-0.00147 0.00618,1.711e-4 0.058882,0.00595 0.061317,0.00621 0.074184,0.00504 0.1482971,0.011725 0.2226785,0.013326 0.096323,0.00205 0.1926765,-0.00116 0.2890098,-0.00121 0.1222065,-0.00175 0.2445174,-0.0032 0.3664959,-0.011308 0.039809,-0.018852 0.081398,-0.034445 0.119428,-0.056556 0.00324,-0.00189 -0.00257,-0.00818 -0.00616,-0.0093 -0.011116,-0.00345 -0.023175,-0.00262 -0.034806,-0.00344 -0.063983,-0.00449 -0.1282213,-0.00573 -0.1921346,-0.011433 -0.1493785,-0.010165 -0.2991677,-0.01841 -0.4489382,-0.017857 -0.039528,0.00307 -0.055166,0.00335 -0.092511,0.00938 -0.040619,0.00656 -0.080619,0.016488 -0.1212348,0.023 -0.038097,0.00691 -0.078014,0.014162 -0.1158713,0.0023 -0.017914,-0.0088 -0.033763,-0.018167 -0.04643,-0.033781 -0.00253,-0.00311 -0.00533,-0.00616 -0.00693,-0.00983 -8.979e-4,-0.00206 -1.795e-4,-0.00447 -2.692e-4,-0.00671 -0.026387,0.01356 -0.0541216,0.024846 -0.0791596,0.040681 -0.005729,0.00362 0.0133804,-0.00259 0.0201479,-0.00336 0.045621,-0.00514 0.0916957,-8.31e-4 0.13738787,3.315e-4 0.05554,0.00309 0.1108361,0.00796 0.1661459,0.01344 0.03666,0.00255 0.073281,0.00409 0.1100536,0.00343 0.059941,6.975e-4 0.1198757,0.00191 0.1797666,0.00456 0.050196,0.00204 0.1004201,0.0048 0.1506403,0.00613 0.045818,0.00121 0.059442,4.621e-4 0.1060013,2.967e-4 0.02042,-7.25e-5 0.040841,-2.57e-5 0.061261,-3.86e-5 0.082586,8.6e-4 0.165192,0.00137 0.2477533,0.00358 0.068004,0.00281 0.135929,0.00707 0.2038309,0.011657 0.1038246,0.0047 0.2076752,0.00529 0.3115926,0.00272 0.059693,-5.557e-4 0.042074,1.216e-4 0.094105,-0.002 0.026058,-0.00106 0.052852,-0.0014 0.078742,-0.00512 0.00319,-4.581e-4 0.00629,-0.00142 0.00944,-0.00214 -3.184e-4,-0.00295 4.53e-4,-0.00622 -9.549e-4,-0.00884 -5.277e-4,-9.755e-4 -0.00185,0.00126 -0.00277,0.00188 -0.0015,10e-4 -0.0061,0.00388 -0.00451,0.00301 0.027478,-0.015095 0.054763,-0.030528 0.082202,-0.045691 0.00261,-0.00144 -0.00489,0.00353 -0.0077,0.00452 -0.00422,0.00149 -0.00876,0.00188 -0.013144,0.00283 -0.034158,0.00143 -0.067684,-8.6e-4 -0.1018118,-0.00303 -0.07709,-0.00489 -0.1541446,-0.010284 -0.2312314,-0.015199 -0.066301,-0.00408 -0.1507538,-0.00976 -0.2168323,-0.011799 -0.03741,-0.00116 -0.07485,-9.611e-4 -0.1122733,-0.00158 -0.1277969,-0.00212 -0.2555652,-0.00538 -0.3833003,-0.00985 -0.1535208,-0.00256 -0.3072211,-0.00293 -0.4606427,0.0038 -0.072855,0.00628 -0.1456879,0.013002 -0.2187306,0.016845 -0.057254,0.00157 -0.1146202,0.00368 -0.17159287,0.0096 -0.0360502,0.00618 -0.0722046,0.011667 -0.10889223,0.00741 -0.0290967,-0.00232 -0.058601,-0.00505 -0.0863564,-0.014479 0,0 -0.0857818,0.055415 -0.0857818,0.055415 z"
         inkscape:export-filename="C:\Users\bhavn\Documents\webdev\tutorials\todo\static\todo\path7946.png"
         inkscape:export-xdpi="96"
         inkscape:export-ydpi="96" />
      <path
         style="fill:#cccccc;fill-opacity:1;fill-rule:evenodd;stroke:none;stroke-width:0.12134;stroke-opacity:1"
         id="path7902"
         d="m 1.0932303,4.6514081 c 0.2092281,-0.013985 0.4188759,-0.01993 0.6284997,-0.024455 0.032513,-9.178e-4 0.065017,-0.0022 0.097539,-0.00275 0.097972,-0.00162 0.1922521,-0.00128 0.2904124,-1.87e-5 0.1193717,0.00153 0.2386199,0.00416 0.3577795,0.011257 -0.037189,0.00525 0.00687,-0.043298 -0.009,-0.048265 -0.041701,-0.013049 -0.087493,0.00277 -0.1312525,0.0036 -0.1362804,0.00257 -0.2725783,0.00174 -0.4088707,0.00119 -0.2634778,0.00255 -0.5268949,-0.00657 -0.7898207,-0.022765 -0.012376,0.020031 -0.056093,0.045877 -0.037126,0.060094 0.033234,0.024913 0.083538,0.00381 0.1252918,0.006 0.05099,0.00267 0.1019651,0.00564 0.1529401,0.00858 0.1407538,0.00813 0.2813573,0.017614 0.4219774,0.027691 0.1868976,0.013566 0.3742986,0.018694 0.5615031,0.026633 0.1084604,0.0046 0.06862,-7.66e-4 0.1255741,0.0082 -0.00423,-0.018552 0.00583,-0.050106 -0.012689,-0.055656 -0.053763,-0.016114 -0.1124218,8.672e-4 -0.1686325,0.00132 -0.066701,5.262e-4 -0.1334015,0.00118 -0.2001033,0.0016 -0.17693,0.00112 -0.3538528,0.00119 -0.5307809,0.0026 -0.1471707,6.998e-4 -0.2944032,0.00161 -0.4415561,-0.00163 -0.02515,-5.54e-4 -0.050423,8.72e-5 -0.075416,-0.00272 -0.00273,-3.069e-4 -0.004,-0.00879 -0.00513,-0.00633 -0.00695,0.015146 -0.00932,0.031948 -0.013974,0.047923 0.2572033,-0.022744 0.5157437,-0.028308 0.7738816,-0.029488 0.18722,9.755e-4 0.374446,0.00113 0.5616656,0.00218 0.084798,9.177e-4 0.077302,0.001 0.1558856,0.00126 0.017172,5.48e-5 0.03765,0.010003 0.051515,5.73e-5 0.016903,-0.012126 0.043711,-0.044393 0.0264,-0.055951 -0.027685,-0.018485 -0.06681,0.00442 -0.1002115,0.00667 -0.038174,0.00258 -0.076343,0.00522 -0.1145138,0.00783 -0.035599,0.00236 -0.071235,0.00423 -0.1067982,0.00706 -0.036175,0.00288 -0.1522125,0.00555 -0.1603267,0.061134 -0.00373,0.025561 0.052086,0.00787 0.078358,0.00907 0.016111,7.371e-4 0.1901473,-0.00223 0.2054689,-0.00246 0.071273,-0.00176 0.1425767,-0.00519 0.2135229,-0.012316 0.00941,-9.467e-4 0.01878,-0.00225 0.028149,-0.00354 0.00251,-3.447e-4 0.00548,1.737e-4 0.00748,-0.00135 0.025676,-0.019592 0.049887,-0.040967 0.074831,-0.061451 -0.026571,-0.00229 -0.012103,-0.00147 -0.043425,-0.00198 0,0 -0.080428,0.057061 -0.080428,0.057061 v 0 c 0.029058,0.00101 0.015903,4.038e-4 0.039471,0.00167 0.029908,-0.019096 0.059909,-0.03805 0.089723,-0.057286 0.00298,-0.00192 -0.00579,0.00433 -0.0092,0.00533 -0.010209,0.00301 -0.020736,0.00496 -0.031265,0.00659 -0.072791,0.011272 -0.146735,0.014521 -0.2201982,0.018145 -0.034285,4.608e-4 -0.068571,9.178e-4 -0.1028563,0.00138 -0.032412,-6.97e-4 -0.064816,-0.00225 -0.097235,-0.00209 -0.019674,1.002e-4 -0.040177,-0.00289 -0.05895,0.00288 -0.02789,0.00858 -0.077146,0.01059 -0.078031,0.039274 -0.00187,0.060773 0.2099128,-0.1155495 0.1847956,-0.018757 0.037327,-0.00205 0.07463,-0.00461 0.1119826,-0.00616 0.096795,-0.00402 0.1263347,0.010355 0.219285,-0.055188 0.014661,-0.010338 -0.036073,0.00144 -0.054117,0.00191 -0.072765,0.00193 -0.082787,0.00146 -0.159807,0.00167 -0.1875542,-6.065e-4 -0.3751097,-0.00402 -0.5626664,-0.00164 -0.2563052,0.00523 -0.5124775,0.015882 -0.7686714,0.024741 -0.048024,0.02043 -0.09747,0.0379 -0.14407266,0.061287 -0.005138,0.00258 0.0113616,0.0024 0.0171301,0.00242 0.0273993,9.71e-5 0.0547758,-0.00163 0.0821717,-0.00207 0.1492338,-0.00236 0.2985059,-0.00176 0.4477499,-0.00268 0.1784111,-0.00204 0.3568529,-0.00621 0.5352831,-0.0059 0.064997,1.106e-4 0.1300042,3.682e-4 0.1949825,0.00192 0.05255,0.00125 0.1055263,0.013814 0.15756,0.00649 0.056614,-0.00797 0.1088736,-0.03445 0.1633104,-0.051675 -0.068021,0.00864 -0.027121,0.0051 -0.1401417,0.00265 -0.1874934,-0.00406 -0.37487,-0.012129 -0.5618915,-0.026001 -0.044554,-0.00306 -0.089085,-0.00642 -0.13366,-0.00917 -0.1450919,-0.00891 -0.1411094,-0.00632 -0.2908783,-0.016751 -0.04945,-0.00345 -0.098907,-0.00696 -0.1482411,-0.011733 -0.037773,-0.00366 -0.075478,-0.019007 -0.1130268,-0.013564 -0.041246,0.00598 -0.077117,0.031143 -0.1156759,0.046715 0.1133191,-0.00285 0.051493,-0.00265 0.1984918,0.00199 0.1997948,0.00631 0.3995642,0.014884 0.5995017,0.015143 0.1364656,-0.00111 0.2729302,-0.00252 0.4094025,-0.00152 0.1522915,0.00112 0.1223927,0.014558 0.2863766,-0.043792 0.00406,-0.00145 -0.00605,-0.00606 -0.00907,-0.00908 -0.122835,3.129e-4 -0.2456174,-0.00139 -0.3684299,-0.00382 -0.09406,-0.00186 -0.1880872,-0.00577 -0.2821648,-0.00624 -0.03206,-1.624e-4 -0.064111,0.00109 -0.096166,0.00164 -0.2057351,0.00925 -0.4117062,0.019515 -0.6177015,0.017116 0,0 -0.081714,0.058289 -0.081714,0.058289 z"
         inkscape:export-filename="C:\Users\bhavn\Documents\webdev\tutorials\todo\static\todo\path7946.png"
         inkscape:export-xdpi="96"
         inkscape:export-ydpi="96" />
      <path
         style="fill:#cccccc;fill-opacity:1;fill-rule:evenodd;stroke:none;stroke-width:0.12134;stroke-opacity:1"
         id="path7904"
         d="m 2.8867169,4.5995522 c -0.2446468,0.026177 -0.4905642,0.036769 -0.7363414,0.04641 -0.040909,0.00124 -0.081817,0.00249 -0.1227253,0.00374 0,0 -0.065408,0.047055 -0.065408,0.047055 v 0 c 0.042038,-0.00204 0.084076,-0.00409 0.1261141,-0.00614 0.2385751,-0.011296 0.4771072,-0.023529 0.7158041,-0.032171 0,0 0.082557,-0.05889 0.082557,-0.05889 z"
         inkscape:export-filename="C:\Users\bhavn\Documents\webdev\tutorials\todo\static\todo\path7946.png"
         inkscape:export-xdpi="96"
         inkscape:export-ydpi="96" />
      <path
         style="fill:#cccccc;fill-opacity:1;fill-rule:evenodd;stroke:none;stroke-width:0.12134;stroke-opacity:1"
         id="path7906"
         d="m 2.7280963,4.5793946 c -0.095718,0.00366 -0.1915095,0.00194 -0.2872204,-8.888e-4 -0.08238,-0.00186 -0.1646185,-0.00656 -0.2470168,-0.00736 -0.1754216,0.001 -0.3507398,-0.00579 -0.5260375,-0.011346 -0.106459,-0.00455 -0.2131598,-0.00452 -0.3195317,-0.011108 -0.057701,-0.00357 -0.060588,-0.00451 -0.1161074,-0.010545 0,0 -0.076286,0.053217 -0.076286,0.053217 v 0 c 0.044781,0.00446 0.072158,0.00766 0.1177024,0.010126 0.1082987,0.00587 0.2169545,0.00181 0.3252845,0.00715 0.1728915,0.00553 0.345648,0.014565 0.5186401,0.016685 0.082181,0.00309 0.1643291,0.00733 0.2465889,0.00767 0.093851,0.00154 0.1877194,0.00302 0.2815475,0.00521 0,0 0.082437,-0.058804 0.082437,-0.058804 z"
         inkscape:export-filename="C:\Users\bhavn\Documents\webdev\tutorials\todo\static\todo\path7946.png"
         inkscape:export-xdpi="96"
         inkscape:export-ydpi="96" />
      <path
         style="fill:#cccccc;fill-opacity:1;fill-rule:evenodd;stroke:none;stroke-width:0.12134;stroke-opacity:1"
         id="path7908"
         d="M 2.253762,4.62707 C 2.1536984,4.63455 2.0531984,4.63433 1.9529009,4.63518 1.8624219,4.6351799 1.7719019,4.6359532 1.6814985,4.63199 1.5773482,4.62744 1.4743521,4.611186 1.3711897,4.597495 c -0.080471,-0.011376 -0.1617671,-0.016 -0.24273,-0.02293 0,0 -0.078015,0.054778 -0.078015,0.054778 v 0 c 0.08133,0.00506 0.1626715,0.011018 0.2434535,0.021816 0.1034118,0.012422 0.2062494,0.030189 0.3104511,0.035202 0.03865,0.00268 0.049645,0.0041 0.086711,0.0044 0.062328,5.071e-4 0.1246952,-0.00277 0.1870297,-0.00213 0.097941,-6.416e-4 0.1958835,-0.00151 0.2938221,-0.00223 0,0 0.08185,-0.059334 0.08185,-0.059334 z"
         inkscape:export-filename="C:\Users\bhavn\Documents\webdev\tutorials\todo\static\todo\path7946.png"
         inkscape:export-xdpi="96"
         inkscape:export-ydpi="96" />
      <path
         style="fill:#cccccc;fill-opacity:1;fill-rule:evenodd;stroke:none;stroke-width:0.12134;stroke-opacity:1"
         id="path7910"
         d="M 2.1902595,4.579413 C 2.1167425,4.591909 2.0420105,4.594657 1.9676087,4.597631 1.8729207,4.603371 1.7805662,4.588901 1.6875517,4.573739 1.6032887,4.557259 1.5176817,4.550107 1.4321186,4.543996 1.3717196,4.542246 1.3113065,4.539256 1.250936,4.5432733 c -0.041059,0.00273 -0.082387,0.00735 -0.1233029,0.011553 -0.10005,0.012104 -0.2005776,0.019452 -0.30127292,0.023527 -0.0415543,0.00117 -0.0216209,7.19e-4 -0.0597996,0.00141 0,0 -0.0796484,0.057136 -0.0796484,0.057136 v 0 c 0.0392825,-0.00134 0.0187833,-5.59e-4 0.0614962,-0.00239 0.10189547,-0.00527 0.20371099,-0.013221 0.30498572,-0.025544 0.1001669,-0.010518 0.1992053,-0.016997 0.299914,-0.00949 0.086108,0.00449 0.1718829,0.01237 0.2567832,0.027659 0.063105,0.00995 0.1268582,0.023215 0.1908561,0.026176 0.014472,6.699e-4 0.028976,1.031e-4 0.043464,4.8e-6 0.015551,-1.055e-4 0.0311,-4.105e-4 0.04665,-6.158e-4 0.072411,-0.00285 0.1449591,-0.00508 0.2170323,-0.012908 0,0 0.082166,-0.060378 0.082166,-0.060378 z"
         inkscape:export-filename="C:\Users\bhavn\Documents\webdev\tutorials\todo\static\todo\path7946.png"
         inkscape:export-xdpi="96"
         inkscape:export-ydpi="96" />
      <path
         style="fill:#cccccc;fill-opacity:1;fill-rule:evenodd;stroke:none;stroke-width:0.12134;stroke-opacity:1"
         id="path7912"
         d="m 1.1324226,4.6132933 c -0.031569,0.00421 -0.062991,0.00867 -0.094778,0.011004 -0.0408502,0.00198 -0.0817881,0.00317 -0.12268174,0.00211 -0.0285394,-9.683e-4 -0.0569542,-0.00486 -0.0846611,-0.011598 -0.0102272,-0.0034 -0.005102,-0.00162 -0.0153742,-0.00535 0,0 -0.0847259,0.056076 -0.0847259,0.056076 v 0 c 0.0106633,0.00381 0.005223,0.00179 0.0163028,0.00606 0.0285701,0.00689 0.0577786,0.011092 0.087203,0.012317 0.0411773,0.00195 0.0824179,-2.745e-4 0.12359285,-0.00157 0.0312559,-0.00142 0.0620428,-0.00505 0.0930021,-0.0091 0,0 0.08212,-0.059953 0.08212,-0.059953 z"
         inkscape:export-filename="C:\Users\bhavn\Documents\webdev\tutorials\todo\static\todo\path7946.png"
         inkscape:export-xdpi="96"
         inkscape:export-ydpi="96" />
      <path
         style="fill:#cccccc;fill-opacity:1;fill-rule:evenodd;stroke:none;stroke-width:0.12134;stroke-opacity:1"
         id="path7914"
         d="m 2.6283371,4.6439518 c 0.029983,-0.018386 0.064433,-0.024119 0.098863,-0.02854 0.038296,-0.00439 0.076169,0.00115 0.1137606,0.00784 0,0 0.082174,-0.056344 0.082174,-0.056344 v 0 c -0.038202,-0.00738 -0.076758,-0.013522 -0.1158451,-0.010094 -0.034045,0.00377 -0.068693,0.00742 -0.09928,0.023851 0,0 -0.079673,0.063287 -0.079673,0.063287 z"
         inkscape:export-filename="C:\Users\bhavn\Documents\webdev\tutorials\todo\static\todo\path7946.png"
         inkscape:export-xdpi="96"
         inkscape:export-ydpi="96" />
      <path
         style="fill:#cccccc;fill-opacity:1;fill-rule:evenodd;stroke:none;stroke-width:0.12134;stroke-opacity:1"
         id="path7916"
         d="m 2.8934461,4.641089 c -0.026351,0.015094 -0.052703,0.030188 -0.079055,0.045281 0,0 0.079424,-0.06275 0.079424,-0.06275 v 0 c -0.031976,0.018058 -0.06395,0.036118 -0.095925,0.054176 0,0 0.095556,-0.036708 0.095556,-0.036708 z"
         inkscape:export-filename="C:\Users\bhavn\Documents\webdev\tutorials\todo\static\todo\path7946.png"
         inkscape:export-xdpi="96"
         inkscape:export-ydpi="96" />
      <path
         style="fill:#cccccc;fill-opacity:1;fill-rule:evenodd;stroke:none;stroke-width:0.12134;stroke-opacity:1"
         id="path7918"
         d="m 1.1903166,5.1034678 c -6.988e-4,0.0346 -0.00813,0.068187 -0.017956,0.1012449 -0.014323,0.035581 -0.028097,0.071439 -0.043475,0.1066186 -0.012834,0.028163 -0.026665,0.055695 -0.037525,0.084702 -0.013276,0.044748 -0.015161,0.092112 -0.018758,0.1383687 -0.0011,0.033984 -7.839e-4,0.017572 -0.00104,0.049236 0,0 0.088654,-0.044367 0.088654,-0.044367 v 0 C 1.1598615,5.508354 1.1597757,5.524385 1.160633,5.491176 1.164093,5.445084 1.167533,5.39801 1.183166,5.3540704 c 0.010931,-0.028646 0.02481,-0.055924 0.037051,-0.084023 0.01487,-0.035505 0.029024,-0.071359 0.042411,-0.1074117 0.00988,-0.034284 0.016501,-0.06917 0.018878,-0.1047867 0,0 -0.091189,0.045618 -0.091189,0.045619 z"
         inkscape:export-filename="C:\Users\bhavn\Documents\webdev\tutorials\todo\static\todo\path7946.png"
         inkscape:export-xdpi="96"
         inkscape:export-ydpi="96" />
      <path
         style="fill:#cccccc;fill-opacity:1;fill-rule:evenodd;stroke:none;stroke-width:0.12134;stroke-opacity:1"
         id="path7920"
         d="m 1.5388141,5.1349492 c -0.0048,0.056696 -0.011652,0.1131884 -0.016332,0.1698977 -0.00428,0.051115 -0.00735,0.1023155 -0.00881,0.1535818 -4.409e-4,0.040298 0.00854,0.079324 0.01942,0.1178957 0.00888,0.032338 0.0046,0.016897 0.012825,0.046329 0,0 0.087501,-0.04691 0.087501,-0.04691 v 0 c -0.00917,-0.028729 -0.00463,-0.013517 -0.013424,-0.045689 -0.00965,-0.03815 -0.016916,-0.076698 -0.016829,-0.1161816 5.276e-4,-0.050566 0.00207,-0.1011361 0.00616,-0.1515592 0.00525,-0.057473 0.011359,-0.1149787 0.021583,-0.1718307 0,0 -0.092097,0.044467 -0.092097,0.044467 z"
         inkscape:export-filename="C:\Users\bhavn\Documents\webdev\tutorials\todo\static\todo\path7946.png"
         inkscape:export-xdpi="96"
         inkscape:export-ydpi="96" />
      <path
         style="fill:#cccccc;fill-opacity:1;fill-rule:evenodd;stroke:none;stroke-width:0.12134;stroke-opacity:1"
         id="path7922"
         d="m 1.7954624,5.1340309 c 0.048679,0.062348 0.070271,0.1397383 0.092245,0.2139849 0.01625,0.059241 0.029804,0.1193013 0.035903,0.1804146 0.00147,0.023718 9.335e-4,0.012001 0.00167,0.035152 0,0 0.089361,-0.045144 0.089361,-0.045144 v 0 c -0.00114,-0.02343 -3.918e-4,-0.011555 -0.00229,-0.035624 -0.00772,-0.060939 -0.025637,-0.1200193 -0.041768,-0.17919 -0.022301,-0.075865 -0.044303,-0.153543 -0.087757,-0.2208591 0,0 -0.087362,0.051265 -0.087362,0.051265 z"
         inkscape:export-filename="C:\Users\bhavn\Documents\webdev\tutorials\todo\static\todo\path7946.png"
         inkscape:export-xdpi="96"
         inkscape:export-ydpi="96" />
      <path
         style="fill:#cccccc;fill-opacity:1;fill-rule:evenodd;stroke:none;stroke-width:0.12134;stroke-opacity:1"
         id="path7924"
         d="m 2.1558084,5.1337905 c 0.036739,0.062211 0.061574,0.1302096 0.082515,0.1988557 0.015448,0.053413 0.020933,0.1089372 0.025772,0.1640717 0.00192,0.029574 0.011706,0.057868 0.019873,0.086187 0,0 0.087514,-0.046871 0.087514,-0.046871 v 0 C 2.3631624,5.5083469 2.3547124,5.4805309 2.3520964,5.4516299 2.3459264,5.3960889 2.3405234,5.340029 2.3244074,5.286228 2.3006684,5.217926 2.2731874,5.1510611 2.2445334,5.0846166 c 0,0 -0.088725,0.049174 -0.088724,0.049173 z"
         inkscape:export-filename="C:\Users\bhavn\Documents\webdev\tutorials\todo\static\todo\path7946.png"
         inkscape:export-xdpi="96"
         inkscape:export-ydpi="96" />
      <path
         style="fill:#cccccc;fill-opacity:1;fill-rule:evenodd;stroke:none;stroke-width:0.12134;stroke-opacity:1"
         id="path7926"
         d="m 2.4164573,5.05911 c 0.046037,0.070444 0.072802,0.1502227 0.099551,0.2290557 0.030148,0.0924 0.0656,0.1829267 0.1013457,0.2733378 0.00454,0.010697 0.00908,0.021394 0.013618,0.032091 0,0 0.08479,-0.046858 0.08479,-0.046858 v 0 C 2.710862,5.5363545 2.705952,5.5259735 2.70105,5.5155915 2.663114,5.4263185 2.629298,5.3354609 2.5986098,5.2435419 2.5722058,5.1637519 2.5431808,5.0848053 2.5051118,5.009549 c 0,0 -0.088655,0.049561 -0.088655,0.049561 z"
         inkscape:export-filename="C:\Users\bhavn\Documents\webdev\tutorials\todo\static\todo\path7946.png"
         inkscape:export-xdpi="96"
         inkscape:export-ydpi="96" />
      <path
         style="fill:#cccccc;fill-opacity:1;fill-rule:evenodd;stroke:none;stroke-width:0.12134;stroke-opacity:1"
         id="path7928"
         d="m 2.8087356,5.1153903 c 0.00642,0.041483 0.018897,0.081856 0.0279,0.1228871 0.019198,0.085303 0.039212,0.1703942 0.060499,0.2552175 0.00365,0.013327 0.0073,0.026655 0.010957,0.039982 0,0 0.084369,-0.045146 0.084369,-0.045146 v 0 c -0.004,-0.013026 -0.008,-0.026051 -0.012001,-0.039076 -0.021912,-0.084944 -0.04068,-0.1707041 -0.056631,-0.2569199 -0.00897,-0.040556 -0.021941,-0.081096 -0.023641,-0.1226956 0,0 -0.091454,0.04575 -0.091454,0.04575 z"
         inkscape:export-filename="C:\Users\bhavn\Documents\webdev\tutorials\todo\static\todo\path7946.png"
         inkscape:export-xdpi="96"
         inkscape:export-ydpi="96" />
      <path
         style="fill:#cccccc;fill-opacity:1;fill-rule:evenodd;stroke:none;stroke-width:0.12134;stroke-opacity:1"
         id="path7930"
         d="m 2.9959915,5.0449187 c 0.040108,0.028199 0.075177,0.062921 0.105795,0.1007579 0.0272,0.038244 0.048985,0.079818 0.072571,0.1202261 0.018024,0.031108 0.034965,0.062903 0.048062,0.096336 0.00957,0.026406 0.025691,0.049661 0.037889,0.074867 0.00291,0.00601 0.016229,0.035888 0.019293,0.042733 0.010003,0.024692 0.020756,0.04907 0.030888,0.073707 0,0 0.087294,-0.047946 0.087294,-0.047946 v 0 C 3.387397,5.4809552 3.3772631,5.4562091 3.3663282,5.4318037 3.3477884,5.3924972 3.3276079,5.3539214 3.3105555,5.3140092 3.2969364,5.2802616 3.279061,5.2484586 3.260197,5.2172818 3.2363625,5.1764292 3.2151651,5.1339161 3.1868563,5.0957402 3.155655,5.0579263 3.1203408,5.0236208 3.0826896,4.9919738 c 0,0 -0.086698,0.052945 -0.086698,0.052945 z"
         inkscape:export-filename="C:\Users\bhavn\Documents\webdev\tutorials\todo\static\todo\path7946.png"
         inkscape:export-xdpi="96"
         inkscape:export-ydpi="96" />
      <path
         style="fill:#cccccc;fill-opacity:1;fill-rule:evenodd;stroke:none;stroke-width:0.12134;stroke-opacity:1"
         id="path7932"
         d="M 0.58816594,5.011514 C 0.56998334,5.039767 0.54682544,5.064125 0.52401884,5.088786 0.48743134,5.130107 0.44857624,5.16943 0.4091448,5.2081228 c -0.0298399,0.028366 -0.0615226,0.055003 -0.0897273,0.084969 -0.027586,0.02954 -0.0495617,0.063485 -0.0712629,0.097282 -0.0219508,0.031645 -0.0359233,0.067768 -0.0501496,0.1032048 -0.006855,0.01619 -0.0145925,0.032341 -0.0179973,0.049691 -0.001603,0.00815 -0.002451,0.016433 -0.003934,0.024605 -0.001632,0.015915 -0.007524,0.03485 -0.004746,0.050839 7.411e-4,0.00426 0.002957,0.00814 0.004432,0.012207 0,0 0.08895,-0.048211 0.08895,-0.048211 v 0 c -0.001012,-0.00302 -0.002622,-0.00591 -0.003029,-0.00907 -0.002138,-0.016391 0.003983,-0.033252 0.00553,-0.049403 0.004447,-0.024952 0.0110011,-0.049043 0.0219608,-0.072129 0.0139284,-0.03504 0.028667,-0.070023 0.0503662,-0.1012493 0.0217655,-0.033681 0.0445101,-0.066953 0.0727181,-0.095856 0.0283656,-0.029126 0.0592238,-0.055828 0.0884156,-0.084149 0.0390039,-0.038988 0.0775049,-0.078473 0.11427596,-0.119514 0.023904,-0.025471 0.0475964,-0.05091 0.0671671,-0.079831 0,0 -0.0939478,0.040003 -0.0939477,0.040003 z"
         inkscape:export-filename="C:\Users\bhavn\Documents\webdev\tutorials\todo\static\todo\path7946.png"
         inkscape:export-xdpi="96"
         inkscape:export-ydpi="96" />
      <path
         style="fill:#cccccc;fill-opacity:1;fill-rule:evenodd;stroke:none;stroke-width:0.12134;stroke-opacity:1"
         id="path7934"
         d="m 0.51134426,5.1232085 c -0.0233931,0.019574 -0.0452747,0.040755 -0.0682431,0.060784 -0.0202748,0.015236 -0.0349884,0.035472 -0.0496536,0.055628 -0.013007,0.023267 -0.0252985,0.046894 -0.0373036,0.070682 -0.015484,0.032814 -0.0302326,0.065933 -0.0454436,0.098864 -0.0148882,0.036727 -0.0266924,0.074509 -0.0400528,0.1117603 -0.00243,0.00582 -0.005088,0.011546 -0.007288,0.017448 -0.004703,0.012593 -0.008372,0.02554 -0.0130669,0.038135 -0.005907,0.015846 -0.0120015,0.031282 -0.0169534,0.047457 0,0 0.0911716,-0.042315 0.0911716,-0.042315 v 0 c 0.0109348,-0.034566 0.0240351,-0.068501 0.0368062,-0.10244 0.0127177,-0.037432 0.0250342,-0.075014 0.0411281,-0.1112334 0.0149823,-0.032801 0.0285751,-0.066231 0.0452533,-0.098268 0.0124968,-0.023494 0.0246266,-0.047292 0.0389868,-0.069746 0.0145099,-0.019597 0.0303017,-0.038057 0.0496173,-0.053344 0.0229677,-0.020812 0.045832,-0.041731 0.0701101,-0.061087 0,0 -0.0950685,0.037674 -0.0950684,0.037675 z"
         inkscape:export-filename="C:\Users\bhavn\Documents\webdev\tutorials\todo\static\todo\path7946.png"
         inkscape:export-xdpi="96"
         inkscape:export-ydpi="96" />
      <path
         style="fill:#cccccc;fill-opacity:1;fill-rule:evenodd;stroke:none;stroke-width:0.12134;stroke-opacity:1"
         id="path7936"
         d="m 0.89881172,5.120269 c -0.022652,0.042718 -0.0492104,0.0833 -0.0749118,0.1242814 -0.0356412,0.059551 -0.0693205,0.1202243 -0.10306241,0.1808318 -0.0298777,0.048845 -0.0502807,0.1022874 -0.0722915,0.15478 -0.0164994,0.039448 -0.0351979,0.078259 -0.048775,0.1188193 0,0 0.0914975,-0.042442 0.0914975,-0.042442 v 0 c 0.0116224,-0.039978 0.029525,-0.077896 0.0455248,-0.1162937 0.0224966,-0.052269 0.0451101,-0.1046064 0.0733348,-0.1542108 0.0329889,-0.061198 0.0670573,-0.1219356 0.10430119,-0.1807503 0.0264152,-0.04201 0.052705,-0.084143 0.0775648,-0.1270567 0,0 -0.0931819,0.04204 -0.0931824,0.042041 z"
         inkscape:export-filename="C:\Users\bhavn\Documents\webdev\tutorials\todo\static\todo\path7946.png"
         inkscape:export-xdpi="96"
         inkscape:export-ydpi="96" />
      <path
         style="fill:#cccccc;fill-opacity:1;fill-rule:evenodd;stroke:none;stroke-width:0.12134;stroke-opacity:1"
         id="path7938"
         d="m 1.1216013,5.0951897 c 8.11e-5,0.00283 4.164e-4,0.00565 2.449e-4,0.00847 -6.618e-4,0.010507 -0.00295,0.019049 -0.00523,0.029496 -0.00572,0.026202 -0.011786,0.052238 -0.018423,0.078234 -0.020239,0.070652 -0.034973,0.1427535 -0.046312,0.2152613 -0.00962,0.055315 -0.00956,0.1113666 -0.00796,0.1672441 0.00462,0.046892 0.0024,0.023118 0.00664,0.071325 0,0 0.085964,-0.043875 0.085964,-0.043875 v 0 c -0.00381,-0.04839 -0.00234,-0.024427 -0.00445,-0.071887 -0.00187,-0.055128 -0.0016,-0.1102551 0.00719,-0.1649218 0.01092,-0.072518 0.025678,-0.1444844 0.047391,-0.214701 0.010491,-0.039542 0.023404,-0.079532 0.026393,-0.1203922 0,0 -0.091454,0.045751 -0.091454,0.045751 z"
         inkscape:export-filename="C:\Users\bhavn\Documents\webdev\tutorials\todo\static\todo\path7946.png"
         inkscape:export-xdpi="96"
         inkscape:export-ydpi="96" />
      <path
         style="fill:#cccccc;fill-opacity:1;fill-rule:evenodd;stroke:none;stroke-width:0.12134;stroke-opacity:1"
         id="path7940"
         d="m 1.4582406,5.150928 c 0.029999,0.023514 0.041751,0.062071 0.052908,0.096645 0.011682,0.036843 0.014465,0.075227 0.0161,0.113514 8.124e-4,0.04331 8.836e-4,0.086627 6.388e-4,0.1299428 -4.164e-4,0.036439 -6.017e-4,0.07288 -7.839e-4,0.1093213 2.23e-5,0.00563 4.46e-5,0.011253 6.69e-5,0.016879 0,0 0.0896,-0.044816 0.0896,-0.044816 v 0 c 2.92e-5,-0.00565 5.85e-5,-0.011301 8.78e-5,-0.016952 -1.078e-4,-0.036251 -1.505e-4,-0.072502 -3.22e-4,-0.108753 1.04e-5,-0.043508 8.552e-4,-0.087022 -3.796e-4,-0.1305189 -0.00133,-0.039138 -0.00517,-0.078198 -0.017948,-0.1155751 -0.012198,-0.036851 -0.024819,-0.07607 -0.053567,-0.1040105 0,0 -0.086414,0.054324 -0.086414,0.054324 z"
         inkscape:export-filename="C:\Users\bhavn\Documents\webdev\tutorials\todo\static\todo\path7946.png"
         inkscape:export-xdpi="96"
         inkscape:export-ydpi="96" />
      <path
         style="fill:#cccccc;fill-opacity:1;fill-rule:evenodd;stroke:none;stroke-width:0.12134;stroke-opacity:1"
         id="path7942"
         d="m 1.8005701,5.1153903 c 1.836e-4,0.043208 0.00442,0.086144 0.00806,0.1291651 0.0047,0.044602 0.01246,0.088815 0.019782,0.1330565 0.00875,0.048888 0.014942,0.098184 0.018878,0.147661 0.0016,0.025347 9.691e-4,0.012568 0.0019,0.038338 0,0 0.088994,-0.044911 0.088994,-0.044911 v 0 c -9.549e-4,-0.026156 -3.822e-4,-0.013132 -0.00172,-0.039071 -0.00552,-0.049296 -0.013985,-0.09821 -0.020707,-0.1473518 -0.00639,-0.044211 -0.013346,-0.088329 -0.01936,-0.1325874 -0.00415,-0.043263 -0.00765,-0.086587 -0.00436,-0.1300504 0,0 -0.091454,0.045751 -0.091454,0.045751 z"
         inkscape:export-filename="C:\Users\bhavn\Documents\webdev\tutorials\todo\static\todo\path7946.png"
         inkscape:export-xdpi="96"
         inkscape:export-ydpi="96" />
      <path
         style="fill:#cccccc;fill-opacity:1;fill-rule:evenodd;stroke:none;stroke-width:0.12134;stroke-opacity:1"
         id="path7944"
         d="m 2.1543108,5.1433151 c -0.00588,0.057302 0.00621,0.1153584 0.015166,0.1718449 0.00674,0.043766 0.01614,0.087009 0.026913,0.129969 0,0 0.087614,-0.046584 0.087614,-0.046584 v 0 C 2.2725278,5.356286 2.2631008,5.313534 2.2555588,5.2704248 c -0.00898,-0.055679 -0.021701,-0.1140209 -0.00894,-0.1700094 0,0 -0.09231,0.0429 -0.09231,0.042899 z"
         inkscape:export-filename="C:\Users\bhavn\Documents\webdev\tutorials\todo\static\todo\path7946.png"
         inkscape:export-xdpi="96"
         inkscape:export-ydpi="96" />
      <path
         style="fill:#cccccc;fill-opacity:1;fill-rule:evenodd;stroke:none;stroke-width:0.12134;stroke-opacity:1"
         id="path7946"
         d="m 0.84966846,4.8535856 c 0.15279974,-0.00447 0.30563734,-0.00552 0.45850184,-0.00507 0.1995658,0.00397 0.3990505,-0.00353 0.5985608,-0.00686 0.1874638,-0.00486 0.3756264,-0.00346 0.5625341,0.013213 0.030112,0.00269 0.060103,0.00655 0.090155,0.00982 0.1111317,0.01573 0.2217237,0.03453 0.3337886,0.042705 0.040961,0.00519 0.081278,-0.00242 0.121693,-0.00733 0.010354,-0.00194 0.018346,0.00582 0.00893,-0.00509 0,0 0.09326,-0.043929 0.09326,-0.043929 v 0 c -0.00654,-0.01281 -0.00613,-0.00902 -0.020751,-0.010352 -0.041534,0.0035 -0.08234,0.016772 -0.1246279,0.011402 -0.1144882,-0.00512 -0.2275558,-0.023686 -0.3412412,-0.036939 -0.030362,-0.0032 -0.060658,-0.00707 -0.091087,-0.0096 -0.064085,-0.00532 -0.1384435,-0.00791 -0.2023931,-0.00975 -0.056924,-0.00163 -0.1918784,-0.00432 -0.2475861,-0.00442 -0.03811,-6.36e-5 -0.076215,8.6e-4 -0.1143222,0.00129 -0.1996202,0.00478 -0.3992581,0.00677 -0.5989349,0.00735 -0.1481263,4.352e-4 -0.2962301,-4.148e-4 -0.44428487,-0.00507 0,0 -0.0821955,0.058632 -0.0821959,0.058632 z"
         inkscape:export-filename="C:\Users\bhavn\Documents\webdev\tutorials\todo\static\todo\path7946.png"
         inkscape:export-xdpi="96"
         inkscape:export-ydpi="96" />
    </g>
  </g>
</svg>
